<svg xmlns="http://www.w3.org/2000/svg" viewBox="0 0 150.6 52.78"><defs><style>.cls-1{fill:#fff;}</style></defs><title>Asset 2</title><g id="Layer_2" data-name="Layer 2"><g id="COLOR_PALETTE" data-name="COLOR PALETTE"><path class="cls-1" d="M75.46,26.39a26.39,26.39,0,0,1-48,15.19h4.78v-10h18s10,0,10-6v-7.2h2v13.2h7.2v-18H59.06v2.46c-1.27-1.38-3.87-2.85-9.19-2.85H26.21A26.39,26.39,0,0,1,75.46,26.39Z"/><path class="cls-1" d="M45.47,25.59H31.87v-6.4h12.8c3.6,0,3.6,1.6,3.6,1.6v2.8C48.27,25.19,45.47,25.59,45.47,25.59Z"/><path class="cls-1" d="M23.59,22.84A7.29,7.29,0,0,1,20,29.27q-3.55,2.34-9.81,2.33A27.44,27.44,0,0,1,0,30V25.24a31.49,31.49,0,0,0,5.36,1.55,26.89,26.89,0,0,0,5.28.57,9.77,9.77,0,0,0,5.28-1.13,3.52,3.52,0,0,0,1.7-3.05,3.56,3.56,0,0,0-1.57-2.92A25.15,25.15,0,0,0,9.6,17.43C6.24,16.29,3.87,15,2.5,13.54A7.37,7.37,0,0,1,.43,8.29a6.92,6.92,0,0,1,3.28-6Q7,0,12.5,0A30.27,30.27,0,0,1,23,2L21.12,6.06a26.87,26.87,0,0,0-8.77-1.72A7.7,7.7,0,0,0,7.91,5.4,3.29,3.29,0,0,0,6.4,8.2,3.39,3.39,0,0,0,7,10.25a5.64,5.64,0,0,0,2,1.61,36.16,36.16,0,0,0,5,2,29.78,29.78,0,0,1,6,2.63,8.26,8.26,0,0,1,2.77,2.75A7.1,7.1,0,0,1,23.59,22.84Z"/><path class="cls-1" d="M96.76,31.59H92.19v-11a4.27,4.27,0,0,0-1-3.08,4.32,4.32,0,0,0-3.17-1A5.54,5.54,0,0,0,83.8,18c-.89.94-1.34,2.53-1.34,4.75v8.88H77.91V13.77h3.57l.64,2.33h.23a6.15,6.15,0,0,1,2.75-2,10.85,10.85,0,0,1,4-.69q7.71,0,7.71,6.52Z"/><path class="cls-1" d="M108.33,31.91a8.11,8.11,0,0,1-6.25-2.42,9.57,9.57,0,0,1-2.25-6.78,9.63,9.63,0,0,1,2.27-6.82,8.2,8.2,0,0,1,6.31-2.44A8,8,0,0,1,114.84,16h.23a19,19,0,0,1-.33-3V6.52h4.57V31.59h-3.56L115,29.25h-.22A7.82,7.82,0,0,1,108.33,31.91Zm1.22-3.06a5.49,5.49,0,0,0,4.09-1.32A6.08,6.08,0,0,0,115,23.27v-.53c0-2.24-.44-3.84-1.32-4.78a5.37,5.37,0,0,0-4.13-1.42,4.47,4.47,0,0,0-3.7,1.62,7.25,7.25,0,0,0-1.29,4.61,7,7,0,0,0,1.26,4.52A4.54,4.54,0,0,0,109.55,28.85Z"/><path class="cls-1" d="M128.39,31.59h-4.55V6.52h4.55Z"/><path class="cls-1" d="M142.27,31.91q-5,0-7.82-2.43a8.35,8.35,0,0,1-2.81-6.67,9.07,9.07,0,0,1,2.61-6.87,10,10,0,0,1,7.19-2.49,9.85,9.85,0,0,1,6.7,2.14,7.4,7.4,0,0,1,2.46,5.89v2.05H136.32a5.33,5.33,0,0,0,1.69,4,6.56,6.56,0,0,0,4.47,1.39,19.63,19.63,0,0,0,3.54-.3,21.43,21.43,0,0,0,3.51-1V30.7a15.8,15.8,0,0,1-3.37.93A23.73,23.73,0,0,1,142.27,31.91Zm-.83-15.6A5.11,5.11,0,0,0,138,17.46a5,5,0,0,0-1.56,3.33h9.72a4.39,4.39,0,0,0-1.28-3.34A4.82,4.82,0,0,0,141.44,16.31Z"/></g></g></svg>